ffmpeg version N-82167-g5e96558 Copyright (c) 2000-2016 the FFmpeg developers
  built with gcc 5.4.0 (Ubuntu 5.4.0-6ubuntu1~16.04.2) 20160609
  configuration: --prefix=/root/ffmpeg_build --pkg-config-flags=--static --extra-cflags=-I/root/ffmpeg_build/include --extra-ldflags=-L/root/ffmpeg_build/lib --bindir=/root/bin --enable-gpl --enable-libass --enable-libfdk-aac --enable-libfreetype --enable-libmp3lame --enable-libopus --enable-libtheora --enable-libvorbis --enable-libx264 --enable-libx265 --enable-nonfree
  libavutil      55. 35.100 / 55. 35.100
  libavcodec     57. 65.100 / 57. 65.100
  libavformat    57. 57.100 / 57. 57.100
  libavdevice    57.  2.100 / 57.  2.100
  libavfilter     6. 66.100 /  6. 66.100
  libswscale      4.  3.100 /  4.  3.100
  libswresample   2.  4.100 /  2.  4.100
  libpostproc    54.  2.100 / 54.  2.100
Input #0, matroska,webm, from '/media/yubikiri/bot/queue/3AnimePahe_Detective_Conan_-_024_720p_Fansub.mkv':
  Metadata:
    title           : 3|Text||0|0
    ENCODER         : Lavf57.57.100
  Duration: 00:24:29.01, start: 0.000000, bitrate: 950 kb/s
    Stream #0:0: Video: mpeg4 (Simple Profile), yuv420p, 640x480 [SAR 1:1 DAR 4:3], 23.98 fps, 23.98 tbr, 1k tbn, 23.98 tbc (default)
    Metadata:
      DURATION        : 00:24:29.011000000
    Stream #0:1: Audio: mp3, 48000 Hz, stereo, s16p, 128 kb/s (default)
    Metadata:
      DURATION        : 00:24:28.704000000
[libx264 @ 0x25b17c0] using SAR=1/1
[libx264 @ 0x25b17c0] using cpu capabilities: MMX2 SSE2Fast SSSE3 SSE4.2 AVX FMA3 AVX2 LZCNT BMI2
[libx264 @ 0x25b17c0] profile High, level 3.1
[libx264 @ 0x25b17c0] 264 - core 148 r2643 5c65704 - H.264/MPEG-4 AVC codec - Copyleft 2003-2015 - http://www.videolan.org/x264.html - options: cabac=1 ref=8 deblock=1:1:1 analyse=0x3:0x133 me=umh subme=7 psy=1 psy_rd=0.00:0.00 mixed_ref=1 me_range=8 chroma_me=1 trellis=0 8x8dct=1 cqm=0 deadzone=21,11 fast_pskip=1 chroma_qp_offset=0 threads=8 lookahead_threads=2 sliced_threads=0 nr=0 decimate=1 interlaced=0 bluray_compat=0 constrained_intra=0 bframes=3 b_pyramid=2 b_adapt=2 b_bias=0 direct=1 weightb=1 open_gop=0 weightp=2 keyint=240 keyint_min=24 scenecut=40 intra_refresh=0 rc_lookahead=60 rc=crf mbtree=1 crf=27.0 qcomp=0.60 qpmin=0 qpmax=69 qpstep=4 ip_ratio=1.40 aq=1:1.00
[libfdk_aac @ 0x251d9e0] Note, the VBR setting is unsupported and only works with some parameter combinations
Output #0, mp4, to '/media/yubikiri/bot/queue/3AnimePahe_Detective_Conan_-_024_720p_Fansub.mkv_encoded.mp4':
  Metadata:
    encoder         : Lavf57.57.100
    Stream #0:0: Video: h264 (libx264) ([33][0][0][0] / 0x0021), yuv420p, 640x480 [SAR 1:1 DAR 4:3], q=-1--1, 23.98 fps, 11988 tbn, 23.98 tbc (default)
    Metadata:
      encoder         : Lavc57.65.100 libx264
    Side data:
      cpb: bitrate max/min/avg: 0/0/0 buffer size: 0 vbv_delay: -1
    Stream #0:1: Audio: aac (libfdk_aac) (HE-AACv2) ([64][0][0][0] / 0x0040), 48000 Hz, stereo, s16, 48 kb/s (default)
    Metadata:
      encoder         : Lavc57.65.100 libfdk_aac
Stream mapping:
  Stream #0:0 -> #0:0 (mpeg4 (native) -> h264 (libx264))
  Stream #0:1 -> #0:1 (mp3 (native) -> aac (libfdk_aac))
Press [q] to stop, [?] for help
frame=  136 fps=0.0 q=32.0 size=     124kB time=00:00:05.86 bitrate= 173.7kbits/s dup=1 drop=0 speed=11.7x    frame=  254 fps=254 q=32.0 size=     281kB time=00:00:10.73 bitrate= 214.9kbits/s dup=1 drop=0 speed=10.7x    frame=  347 fps=231 q=32.0 size=     524kB time=00:00:14.65 bitrate= 292.9kbits/s dup=1 drop=0 speed=9.76x    frame=  419 fps=209 q=32.0 size=     748kB time=00:00:17.64 bitrate= 347.3kbits/s dup=1 drop=0 speed= 8.8x    frame=  504 fps=200 q=32.0 size=     953kB time=00:00:21.18 bitrate= 368.4kbits/s dup=1 drop=0 speed=8.42x    frame=  576 fps=190 q=32.0 size=    1118kB time=00:00:24.17 bitrate= 378.7kbits/s dup=1 drop=0 speed=7.97x    frame=  639 fps=180 q=32.0 size=    1336kB time=00:00:26.81 bitrate= 408.0kbits/s dup=1 drop=0 speed=7.55x    frame=  707 fps=174 q=32.0 size=    1552kB time=00:00:29.63 bitrate= 428.9kbits/s dup=1 drop=0 speed= 7.3x    frame=  757 fps=166 q=32.0 size=    1702kB time=00:00:31.72 bitrate= 439.5kbits/s dup=1 drop=0 speed=6.95x    frame=  793 fps=156 q=32.0 size=    1863kB time=00:00:33.25 bitrate= 458.9kbits/s dup=1 drop=0 speed=6.54x    frame=  818 fps=146 q=32.0 size=    2006kB time=00:00:34.28 bitrate= 479.4kbits/s dup=1 drop=0 speed=6.14x    frame=  860 fps=141 q=32.0 size=    2214kB time=00:00:36.03 bitrate= 503.4kbits/s dup=1 drop=0 speed= 5.9x    frame=  906 fps=137 q=32.0 size=    2439kB time=00:00:37.95 bitrate= 526.3kbits/s dup=1 drop=0 speed=5.74x    frame=  960 fps=135 q=32.0 size=    2651kB time=00:00:40.21 bitrate= 540.0kbits/s dup=1 drop=0 speed=5.64x    frame= 1026 fps=134 q=32.0 size=    2843kB time=00:00:42.94 bitrate= 542.4kbits/s dup=1 drop=0 speed=5.62x    frame= 1093 fps=134 q=32.0 size=    3050kB time=00:00:45.76 bitrate= 545.9kbits/s dup=1 drop=0 speed=5.61x    frame= 1165 fps=134 q=32.0 size=    3234kB time=00:00:48.74 bitrate= 543.5kbits/s dup=1 drop=0 speed=5.63x    frame= 1210 fps=131 q=32.0 size=    3523kB time=00:00:50.62 bitrate= 570.0kbits/s dup=1 drop=0 speed= 5.5x    frame= 1266 fps=130 q=32.0 size=    3760kB time=00:00:52.97 bitrate= 581.5kbits/s dup=1 drop=0 speed=5.45x    frame= 1354 fps=132 q=32.0 size=    3997kB time=00:00:56.64 bitrate= 578.0kbits/s dup=1 drop=0 speed=5.52x    frame= 1416 fps=131 q=32.0 size=    4265kB time=00:00:59.20 bitrate= 590.2kbits/s dup=1 drop=0 speed=5.48x    frame= 1467 fps=130 q=32.0 size=    4469kB time=00:01:01.33 bitrate= 596.9kbits/s dup=1 drop=0 speed=5.43x    frame= 1535 fps=130 q=32.0 size=    4712kB time=00:01:04.19 bitrate= 601.3kbits/s dup=1 drop=0 speed=5.44x    frame= 1612 fps=131 q=29.0 size=    4875kB time=00:01:07.43 bitrate= 592.2kbits/s dup=1 drop=0 speed=5.48x    frame= 1669 fps=130 q=32.0 size=    5079kB time=00:01:09.78 bitrate= 596.2kbits/s dup=1 drop=0 speed=5.45x    frame= 1729 fps=130 q=32.0 size=    5288kB time=00:01:12.25 bitrate= 599.5kbits/s dup=1 drop=0 speed=5.43x    frame= 1784 fps=129 q=32.0 size=    5519kB time=00:01:14.56 bitrate= 606.4kbits/s dup=1 drop=0 speed=5.39x    frame= 1821 fps=127 q=32.0 size=    5718kB time=00:01:16.09 bitrate= 615.5kbits/s dup=1 drop=0 speed=5.31x    frame= 1869 fps=126 q=32.0 size=    5938kB time=00:01:18.10 bitrate= 622.8kbits/s dup=1 drop=0 speed=5.26x    frame= 1926 fps=125 q=32.0 size=    6123kB time=00:01:20.49 bitrate= 623.1kbits/s dup=1 drop=0 speed=5.24x    frame= 1996 fps=126 q=32.0 size=    6298kB time=00:01:23.39 bitrate= 618.6kbits/s dup=1 drop=0 speed=5.25x    frame= 2084 fps=127 q=32.0 size=    6485kB time=00:01:27.06 bitrate= 610.2kbits/s dup=1 drop=0 speed=5.31x    frame= 2178 fps=129 q=32.0 size=    6640kB time=00:01:30.98 bitrate= 597.8kbits/s dup=1 drop=0 speed=5.38x    frame= 2381 fps=137 q=32.0 size=    6822kB time=00:01:39.47 bitrate= 561.8kbits/s dup=1 drop=0 speed=5.72x    frame= 2531 fps=141 q=32.0 size=    6942kB time=00:01:45.70 bitrate= 538.0kbits/s dup=1 drop=0 speed=5.91x    frame= 2604 fps=141 q=32.0 size=    7040kB time=00:01:48.77 bitrate= 530.2kbits/s dup=1 drop=0 speed= 5.9x    frame= 2664 fps=141 q=32.0 size=    7116kB time=00:01:51.25 bitrate= 524.0kbits/s dup=1 drop=0 speed=5.88x    frame= 2726 fps=140 q=32.0 size=    7173kB time=00:01:53.85 bitrate= 516.1kbits/s dup=1 drop=0 speed=5.86x    frame= 2793 fps=140 q=32.0 size=    7259kB time=00:01:56.63 bitrate= 509.9kbits/s dup=1 drop=0 speed=5.85x    frame= 2835 fps=139 q=29.0 size=    7344kB time=00:01:58.37 bitrate= 508.2kbits/s dup=1 drop=0 speed=5.79x    frame= 2910 fps=139 q=32.0 size=    7456kB time=00:02:01.57 bitrate= 502.4kbits/s dup=1 drop=0 speed= 5.8x    frame= 2965 fps=138 q=32.0 size=    7540kB time=00:02:03.79 bitrate= 498.9kbits/s dup=1 drop=0 speed=5.76x    frame= 3021 fps=137 q=32.0 size=    7606kB time=00:02:06.18 bitrate= 493.8kbits/s dup=1 drop=0 speed=5.74x    frame= 3076 fps=137 q=32.0 size=    7736kB time=00:02:08.44 bitrate= 493.4kbits/s dup=1 drop=0 speed=5.71x    frame= 3127 fps=136 q=32.0 size=    7827kB time=00:02:10.62 bitrate= 490.9kbits/s dup=1 drop=0 speed=5.68x    frame= 3177 fps=135 q=32.0 size=    7968kB time=00:02:12.67 bitrate= 492.0kbits/s dup=1 drop=0 speed=5.64x    frame= 3216 fps=134 q=32.0 size=    8109kB time=00:02:14.29 bitrate= 494.6kbits/s dup=1 drop=0 speed=5.59x    frame= 3254 fps=133 q=32.0 size=    8222kB time=00:02:15.87 bitrate= 495.7kbits/s dup=1 drop=0 speed=5.54x    frame= 3307 fps=132 q=32.0 size=    8354kB time=00:02:18.09 bitrate= 495.6kbits/s dup=1 drop=0 speed=5.52x    frame= 3360 fps=132 q=32.0 size=    8457kB time=00:02:20.31 bitrate= 493.7kbits/s dup=1 drop=0 speed= 5.5x    frame= 3412 fps=131 q=32.0 size=    8570kB time=00:02:22.44 bitrate= 492.8kbits/s dup=1 drop=0 speed=5.47x    frame= 3454 fps=130 q=32.0 size=    8663kB time=00:02:24.23 bitrate= 492.1kbits/s dup=1 drop=0 speed=5.44x    frame= 3497 fps=129 q=32.0 size=    8769kB time=00:02:26.02 bitrate= 491.9kbits/s dup=1 drop=0 speed= 5.4x    frame= 3543 fps=129 q=32.0 size=    8900kB time=00:02:27.94 bitrate= 492.8kbits/s dup=1 drop=0 speed=5.37x    frame= 3586 fps=128 q=32.0 size=    8995kB time=00:02:29.69 bitrate= 492.2kbits/s dup=1 drop=0 speed=5.34x    frame= 3646 fps=128 q=32.0 size=    9110kB time=00:02:32.21 bitrate= 490.3kbits/s dup=1 drop=0 speed=5.33x    frame= 3713 fps=128 q=32.0 size=    9187kB time=00:02:35.03 bitrate= 485.4kbits/s dup=1 drop=0 speed=5.34x    frame= 3777 fps=128 q=32.0 size=    9275kB time=00:02:37.67 bitrate= 481.9kbits/s dup=1 drop=0 speed=5.33x    frame= 3818 fps=127 q=32.0 size=    9347kB time=00:02:39.42 bitrate= 480.3kbits/s dup=1 drop=0 speed= 5.3x    frame= 3887 fps=127 q=32.0 size=    9460kB time=00:02:42.28 bitrate= 477.5kbits/s dup=1 drop=0 speed=5.31x    frame= 3967 fps=128 q=32.0 size=    9527kB time=00:02:45.61 bitrate= 471.2kbits/s dup=1 drop=0 speed=5.33x    frame= 4054 fps=128 q=32.0 size=    9671kB time=00:02:49.23 bitrate= 468.1kbits/s dup=1 drop=0 speed=5.36x    frame= 4144 fps=129 q=32.0 size=    9758kB time=00:02:52.99 bitrate= 462.1kbits/s dup=1 drop=0 speed=5.39x    frame= 4239 fps=130 q=32.0 size=    9869kB time=00:02:56.96 bitrate= 456.9kbits/s dup=1 drop=0 speed=5.43x    frame= 4323 fps=131 q=32.0 size=    9951kB time=00:03:00.45 bitrate= 451.7kbits/s dup=1 drop=0 speed=5.45x    frame= 4371 fps=130 q=32.0 size=   10050kB time=00:03:02.46 bitrate= 451.2kbits/s dup=1 drop=0 speed=5.43x    frame= 4440 fps=130 q=32.0 size=   10176kB time=00:03:05.36 bitrate= 449.7kbits/s dup=1 drop=0 speed=5.43x    frame= 4529 fps=131 q=32.0 size=   10326kB time=00:03:09.03 bitrate= 447.5kbits/s dup=1 drop=0 speed=5.46x    frame= 4614 fps=131 q=32.0 size=   10415kB time=00:03:12.61 bitrate= 443.0kbits/s dup=1 drop=0 speed=5.48x    frame= 4706 fps=132 q=32.0 size=   10520kB time=00:03:16.45 bitrate= 438.7kbits/s dup=1 drop=0 speed=5.51x    frame= 4786 fps=132 q=32.0 size=   10655kB time=00:03:19.78 bitrate= 436.9kbits/s dup=1 drop=0 speed=5.53x    frame= 4870 fps=133 q=32.0 size=   10755kB time=00:03:23.28 bitrate= 433.4kbits/s dup=1 drop=0 speed=5.55x    frame= 4944 fps=133 q=32.0 size=   10886kB time=00:03:26.35 bitrate= 432.2kbits/s dup=1 drop=0 speed=5.55x    frame= 5009 fps=133 q=32.0 size=   10979kB time=00:03:29.08 bitrate= 430.2kbits/s dup=1 drop=0 speed=5.55x    frame= 5042 fps=132 q=32.0 size=   11064kB time=00:03:30.45 bitrate= 430.7kbits/s dup=1 drop=0 speed=5.51x    frame= 5070 fps=131 q=32.0 size=   11171kB time=00:03:31.64 bitrate= 432.4kbits/s dup=1 drop=0 speed=5.47x    frame= 5104 fps=130 q=32.0 size=   11291kB time=00:03:33.05 bitrate= 434.1kbits/s dup=1 drop=0 speed=5.43x    frame= 5147 fps=129 q=32.0 size=   11400kB time=00:03:34.80 bitrate= 434.8kbits/s dup=1 drop=0 speed= 5.4x    frame= 5184 fps=129 q=32.0 size=   11512kB time=00:03:36.38 bitrate= 435.8kbits/s dup=1 drop=0 speed=5.37x    frame= 5246 fps=129 q=32.0 size=   11650kB time=00:03:38.94 bitrate= 435.9kbits/s dup=1 drop=0 speed=5.37x    frame= 5323 fps=129 q=32.0 size=   11767kB time=00:03:42.14 bitrate= 433.9kbits/s dup=1 drop=0 speed=5.38x    frame= 5373 fps=129 q=32.0 size=   11890kB time=00:03:44.23 bitrate= 434.4kbits/s dup=1 drop=0 speed=5.37x    frame= 5418 fps=128 q=32.0 size=   11978kB time=00:03:46.11 bitrate= 433.9kbits/s dup=1 drop=0 speed=5.35x    frame= 5469 fps=128 q=32.0 size=   12071kB time=00:03:48.24 bitrate= 433.2kbits/s dup=1 drop=0 speed=5.33x    frame= 5514 fps=127 q=32.0 size=   12205kB time=00:03:50.12 bitrate= 434.5kbits/s dup=1 drop=0 speed=5.31x    frame= 5598 fps=128 q=32.0 size=   12365kB time=00:03:53.62 bitrate= 433.6kbits/s dup=1 drop=0 speed=5.33x    frame= 5661 fps=128 q=32.0 size=   12435kB time=00:03:56.26 bitrate= 431.1kbits/s dup=1 drop=0 speed=5.33x    frame= 5742 fps=128 q=32.0 size=   12561kB time=00:03:59.68 bitrate= 429.3kbits/s dup=1 drop=0 speed=5.35x    frame= 5823 fps=128 q=32.0 size=   12697kB time=00:04:03.00 bitrate= 428.0kbits/s dup=1 drop=0 speed=5.36x    frame= 5912 fps=129 q=32.0 size=   12831kB time=00:04:06.72 bitrate= 426.0kbits/s dup=1 drop=0 speed=5.38x    frame= 5973 fps=129 q=32.0 size=   12967kB time=00:04:09.28 bitrate= 426.1kbits/s dup=1 drop=0 speed=5.38x    frame= 6013 fps=128 q=32.0 size=   13108kB time=00:04:10.94 bitrate= 427.9kbits/s dup=1 drop=0 speed=5.35x    frame= 6063 fps=128 q=32.0 size=   13249kB time=00:04:13.03 bitrate= 428.9kbits/s dup=1 drop=0 speed=5.34x    frame= 6151 fps=128 q=32.0 size=   13359kB time=00:04:16.74 bitrate= 426.2kbits/s dup=1 drop=0 speed=5.36x    frame= 6230 fps=129 q=32.0 size=   13512kB time=00:04:19.99 bitrate= 425.7kbits/s dup=1 drop=0 speed=5.37x    frame= 6296 fps=129 q=32.0 size=   13645kB time=00:04:22.76 bitrate= 425.4kbits/s dup=1 drop=0 speed=5.37x    frame= 6337 fps=128 q=32.0 size=   13757kB time=00:04:24.47 bitrate= 426.1kbits/s dup=1 drop=0 speed=5.35x    frame= 6389 fps=128 q=29.0 size=   13887kB time=00:04:26.64 bitrate= 426.6kbits/s dup=1 drop=0 speed=5.34x    frame= 6435 fps=128 q=32.0 size=   14053kB time=00:04:28.56 bitrate= 428.6kbits/s dup=1 drop=0 speed=5.32x    frame= 6490 fps=127 q=32.0 size=   14261kB time=00:04:30.82 bitrate= 431.4kbits/s dup=1 drop=0 speed=5.32x    frame= 6535 fps=127 q=32.0 size=   14390kB time=00:04:32.70 bitrate= 432.3kbits/s dup=1 drop=0 speed= 5.3x    frame= 6586 fps=127 q=32.0 size=   14481kB time=00:04:34.83 bitrate= 431.6kbits/s dup=1 drop=0 speed=5.29x    frame= 6635 fps=126 q=32.0 size=   14603kB time=00:04:36.88 bitrate= 432.0kbits/s dup=1 drop=0 speed=5.28x    frame= 6678 fps=126 q=32.0 size=   14722kB time=00:04:38.67 bitrate= 432.8kbits/s dup=1 drop=0 speed=5.26x    frame= 6767 fps=126 q=32.0 size=   14838kB time=00:04:42.39 bitrate= 430.5kbits/s dup=1 drop=0 speed=5.28x    frame= 6857 fps=127 q=32.0 size=   14999kB time=00:04:46.14 bitrate= 429.4kbits/s dup=1 drop=0 speed= 5.3x    frame= 6958 fps=128 q=32.0 size=   15181kB time=00:04:50.36 bitrate= 428.3kbits/s dup=1 drop=0 speed=5.33x    frame= 7059 fps=128 q=32.0 size=   15346kB time=00:04:54.59 bitrate= 426.7kbits/s dup=1 drop=0 speed=5.35x    frame= 7170 fps=129 q=32.0 size=   15454kB time=00:04:59.20 bitrate= 423.1kbits/s dup=1 drop=0 speed=5.39x    frame= 7280 fps=130 q=32.0 size=   15586kB time=00:05:03.80 bitrate= 420.3kbits/s dup=1 drop=0 speed=5.42x    frame= 7378 fps=130 q=32.0 size=   15716kB time=00:05:07.86 bitrate= 418.2kbits/s dup=1 drop=0 speed=5.44x    frame= 7494 fps=131 q=32.0 size=   15863kB time=00:05:12.72 bitrate= 415.5kbits/s dup=1 drop=0 speed=5.48x    frame= 7594 fps=132 q=32.0 size=   15997kB time=00:05:16.90 bitrate= 413.5kbits/s dup=1 drop=0 speed=5.51x    frame= 7694 fps=132 q=32.0 size=   16134kB time=00:05:21.08 bitrate= 411.6kbits/s dup=1 drop=0 speed=5.53x    frame= 7765 fps=133 q=32.0 size=   16241kB time=00:05:24.03 bitrate= 410.6kbits/s dup=1 drop=0 speed=5.53x    frame= 7817 fps=132 q=32.0 size=   16380kB time=00:05:26.16 bitrate= 411.4kbits/s dup=1 drop=0 speed=5.52x    frame= 7905 fps=133 q=32.0 size=   16516kB time=00:05:29.83 bitrate= 410.2kbits/s dup=1 drop=0 speed=5.54x    frame= 8006 fps=133 q=32.0 size=   16622kB time=00:05:34.05 bitrate= 407.6kbits/s dup=1 drop=0 speed=5.56x    frame= 8093 fps=134 q=32.0 size=   16746kB time=00:05:37.68 bitrate= 406.3kbits/s dup=1 drop=0 speed=5.57x    frame= 8209 fps=134 q=32.0 size=   16831kB time=00:05:42.55 bitrate= 402.5kbits/s dup=1 drop=0 speed=5.61x    frame= 8328 fps=135 q=32.0 size=   16953kB time=00:05:47.49 bitrate= 399.6kbits/s dup=1 drop=0 speed=5.64x    frame= 8387 fps=135 q=32.0 size=   17106kB time=00:05:49.97 bitrate= 400.4kbits/s dup=1 drop=0 speed=5.63x    frame= 8464 fps=135 q=32.0 size=   17222kB time=00:05:53.17 bitrate= 399.5kbits/s dup=1 drop=0 speed=5.64x    frame= 8542 fps=135 q=32.0 size=   17368kB time=00:05:56.41 bitrate= 399.2kbits/s dup=1 drop=0 speed=5.65x    frame= 8628 fps=136 q=32.0 size=   17487kB time=00:06:00.04 bitrate= 397.9kbits/s dup=1 drop=0 speed=5.66x    frame= 8715 fps=136 q=32.0 size=   17631kB time=00:06:03.62 bitrate= 397.2kbits/s dup=1 drop=0 speed=5.67x    frame= 8805 fps=136 q=32.0 size=   17748kB time=00:06:07.38 bitrate= 395.8kbits/s dup=1 drop=0 speed=5.69x    frame= 8899 fps=137 q=32.0 size=   17861kB time=00:06:11.30 bitrate= 394.1kbits/s dup=1 drop=0 speed= 5.7x    frame= 9000 fps=137 q=32.0 size=   17981kB time=00:06:15.53 bitrate= 392.2kbits/s dup=1 drop=0 speed=5.72x    frame= 9086 fps=137 q=32.0 size=   18095kB time=00:06:19.11 bitrate= 391.0kbits/s dup=1 drop=0 speed=5.73x    frame= 9187 fps=138 q=32.0 size=   18191kB time=00:06:23.29 bitrate= 388.8kbits/s dup=1 drop=0 speed=5.75x    frame= 9281 fps=138 q=32.0 size=   18314kB time=00:06:27.26 bitrate= 387.4kbits/s dup=1 drop=0 speed=5.77x    frame= 9380 fps=139 q=32.0 size=   18459kB time=00:06:31.40 bitrate= 386.3kbits/s dup=1 drop=0 speed=5.78x    frame= 9473 fps=139 q=32.0 size=   18578kB time=00:06:35.24 bitrate= 385.1kbits/s dup=1 drop=0 speed= 5.8x    frame= 9576 fps=139 q=32.0 size=   18700kB time=00:06:39.55 bitrate= 383.4kbits/s dup=1 drop=0 speed=5.82x    frame= 9649 fps=139 q=32.0 size=   18839kB time=00:06:42.58 bitrate= 383.4kbits/s dup=1 drop=0 speed=5.82x    frame= 9748 fps=140 q=32.0 size=   18970kB time=00:06:46.72 bitrate= 382.1kbits/s dup=1 drop=0 speed=5.83x    frame= 9850 fps=140 q=32.0 size=   19109kB time=00:06:50.98 bitrate= 380.9kbits/s dup=1 drop=0 speed=5.85x    frame= 9940 fps=141 q=32.0 size=   19203kB time=00:06:54.78 bitrate= 379.3kbits/s dup=1 drop=0 speed=5.86x    frame=10008 fps=140 q=32.0 size=   19314kB time=00:06:57.55 bitrate= 378.9kbits/s dup=1 drop=0 speed=5.86x    frame=10070 fps=140 q=32.0 size=   19387kB time=00:07:00.16 bitrate= 378.0kbits/s dup=1 drop=0 speed=5.86x    frame=10128 fps=140 q=32.0 size=   19497kB time=00:07:02.59 bitrate= 378.0kbits/s dup=1 drop=0 speed=5.85x    frame=10211 fps=140 q=32.0 size=   19680kB time=00:07:06.04 bitrate= 378.4kbits/s dup=1 drop=0 speed=5.86x    frame=10277 fps=140 q=32.0 size=   19827kB time=00:07:08.82 bitrate= 378.8kbits/s dup=1 drop=0 speed=5.85x    frame=10362 fps=140 q=32.0 size=   19991kB time=00:07:12.32 bitrate= 378.8kbits/s dup=1 drop=0 speed=5.86x    frame=10459 fps=141 q=32.0 size=   20088kB time=00:07:16.37 bitrate= 377.1kbits/s dup=1 drop=0 speed=5.88x    frame=10549 fps=141 q=32.0 size=   20233kB time=00:07:20.12 bitrate= 376.6kbits/s dup=1 drop=0 speed=5.89x    frame=10652 fps=142 q=32.0 size=   20365kB time=00:07:24.43 bitrate= 375.4kbits/s dup=1 drop=0 speed= 5.9x    frame=10762 fps=142 q=32.0 size=   20461kB time=00:07:29.00 bitrate= 373.3kbits/s dup=1 drop=0 speed=5.93x    frame=10880 fps=143 q=32.0 size=   20576kB time=00:07:33.95 bitrate= 371.3kbits/s dup=1 drop=0 speed=5.95x    frame=10960 fps=143 q=32.0 size=   20671kB time=00:07:37.28 bitrate= 370.3kbits/s dup=1 drop=0 speed=5.96x    frame=11033 fps=143 q=32.0 size=   20839kB time=00:07:40.31 bitrate= 370.9kbits/s dup=1 drop=0 speed=5.96x    frame=11093 fps=143 q=32.0 size=   20961kB time=00:07:42.82 bitrate= 371.0kbits/s dup=1 drop=0 speed=5.95x    frame=11162 fps=143 q=32.0 size=   21099kB time=00:07:45.72 bitrate= 371.1kbits/s dup=1 drop=0 speed=5.95x    frame=11220 fps=142 q=32.0 size=   21217kB time=00:07:48.11 bitrate= 371.3kbits/s dup=1 drop=0 speed=5.94x    frame=11299 fps=142 q=32.0 size=   21341kB time=00:07:51.44 bitrate= 370.8kbits/s dup=1 drop=0 speed=5.94x    frame=11391 fps=143 q=32.0 size=   21434kB time=00:07:55.24 bitrate= 369.5kbits/s dup=1 drop=0 speed=5.95x    frame=11496 fps=143 q=29.0 size=   21513kB time=00:07:59.68 bitrate= 367.4kbits/s dup=1 drop=0 speed=5.97x    frame=11590 fps=143 q=32.0 size=   21635kB time=00:08:03.56 bitrate= 366.5kbits/s dup=1 drop=0 speed=5.98x    frame=11688 fps=144 q=32.0 size=   21755kB time=00:08:07.65 bitrate= 365.5kbits/s dup=1 drop=0 speed=5.99x    frame=11776 fps=144 q=32.0 size=   21886kB time=00:08:11.32 bitrate= 364.9kbits/s dup=1 drop=0 speed=   6x    frame=11871 fps=144 q=32.0 size=   21985kB time=00:08:15.29 bitrate= 363.6kbits/s dup=1 drop=0 speed=6.01x    frame=11958 fps=144 q=32.0 size=   22104kB time=00:08:18.92 bitrate= 362.9kbits/s dup=1 drop=0 speed=6.02x    frame=12027 fps=144 q=32.0 size=   22236kB time=00:08:21.78 bitrate= 363.0kbits/s dup=1 drop=0 speed=6.02x    frame=12105 fps=144 q=32.0 size=   22391kB time=00:08:25.02 bitrate= 363.2kbits/s dup=1 drop=0 speed=6.02x    frame=12232 fps=145 q=32.0 size=   22488kB time=00:08:30.31 bitrate= 361.0kbits/s dup=1 drop=0 speed=6.05x    frame=12350 fps=145 q=32.0 size=   22614kB time=00:08:35.26 bitrate= 359.5kbits/s dup=1 drop=0 speed=6.07x    frame=12448 fps=146 q=32.0 size=   22726kB time=00:08:39.31 bitrate= 358.5kbits/s dup=1 drop=0 speed=6.08x    frame=12550 fps=146 q=32.0 size=   22862kB time=00:08:43.58 bitrate= 357.7kbits/s dup=1 drop=0 speed= 6.1x    frame=12645 fps=146 q=32.0 size=   22934kB time=00:08:47.55 bitrate= 356.1kbits/s dup=1 drop=0 speed=6.11x    frame=12705 fps=146 q=32.0 size=   23057kB time=00:08:50.07 bitrate= 356.3kbits/s dup=1 drop=0 speed= 6.1x    frame=12777 fps=146 q=32.0 size=   23157kB time=00:08:53.05 bitrate= 355.9kbits/s dup=1 drop=0 speed= 6.1x    frame=12845 fps=146 q=32.0 size=   23242kB time=00:08:55.91 bitrate= 355.3kbits/s dup=1 drop=0 speed= 6.1x    frame=12889 fps=146 q=32.0 size=   23326kB time=00:08:57.75 bitrate= 355.3kbits/s dup=1 drop=0 speed=6.08x    frame=12955 fps=146 q=32.0 size=   23457kB time=00:09:00.48 bitrate= 355.5kbits/s dup=1 drop=0 speed=6.08x    frame=13055 fps=146 q=32.0 size=   23563kB time=00:09:04.66 bitrate= 354.4kbits/s dup=1 drop=0 speed=6.09x    frame=13146 fps=146 q=32.0 size=   23668kB time=00:09:08.45 bitrate= 353.5kbits/s dup=1 drop=0 speed=6.09x    frame=13215 fps=146 q=32.0 size=   23838kB time=00:09:11.31 bitrate= 354.2kbits/s dup=1 drop=0 speed=6.09x    frame=13310 fps=146 q=32.0 size=   23944kB time=00:09:15.28 bitrate= 353.2kbits/s dup=1 drop=0 speed= 6.1x    frame=13400 fps=146 q=32.0 size=   24083kB time=00:09:19.04 bitrate= 352.9kbits/s dup=1 drop=0 speed=6.11x    frame=13506 fps=147 q=32.0 size=   24203kB time=00:09:23.47 bitrate= 351.9kbits/s dup=1 drop=0 speed=6.13x    frame=13609 fps=147 q=32.0 size=   24341kB time=00:09:27.78 bitrate= 351.2kbits/s dup=1 drop=0 speed=6.14x    frame=13701 fps=147 q=32.0 size=   24470kB time=00:09:31.62 bitrate= 350.7kbits/s dup=1 drop=0 speed=6.15x    frame=13802 fps=148 q=32.0 size=   24612kB time=00:09:35.80 bitrate= 350.2kbits/s dup=1 drop=0 speed=6.16x    frame=13910 fps=148 q=32.0 size=   24719kB time=00:09:40.33 bitrate= 348.9kbits/s dup=1 drop=0 speed=6.17x    frame=14022 fps=148 q=32.0 size=   24888kB time=00:09:44.98 bitrate= 348.5kbits/s dup=1 drop=0 speed=6.19x    frame=14145 fps=149 q=32.0 size=   25011kB time=00:09:50.14 bitrate= 347.2kbits/s dup=1 drop=0 speed=6.21x    frame=14251 fps=149 q=32.0 size=   25133kB time=00:09:54.53 bitrate= 346.3kbits/s dup=1 drop=0 speed=6.22x    frame=14372 fps=150 q=32.0 size=   25263kB time=00:09:59.57 bitrate= 345.2kbits/s dup=1 drop=0 speed=6.24x    frame=14495 fps=150 q=32.0 size=   25399kB time=00:10:04.73 bitrate= 344.1kbits/s dup=1 drop=0 speed=6.26x    frame=14590 fps=150 q=32.0 size=   25540kB time=00:10:08.70 bitrate= 343.7kbits/s dup=1 drop=0 speed=6.27x    frame=14705 fps=151 q=32.0 size=   25713kB time=00:10:13.48 bitrate= 343.4kbits/s dup=1 drop=0 speed=6.29x    frame=14824 fps=151 q=32.0 size=   25838kB time=00:10:18.47 bitrate= 342.2kbits/s dup=1 drop=0 speed=6.31x    frame=14920 fps=151 q=32.0 size=   25966kB time=00:10:22.44 bitrate= 341.7kbits/s dup=1 drop=0 speed=6.31x    frame=15019 fps=152 q=32.0 size=   26105kB time=00:10:26.58 bitrate= 341.3kbits/s dup=1 drop=0 speed=6.32x    frame=15113 fps=152 q=32.0 size=   26253kB time=00:10:30.46 bitrate= 341.1kbits/s dup=1 drop=0 speed=6.33x    frame=15192 fps=152 q=32.0 size=   26417kB time=00:10:33.79 bitrate= 341.4kbits/s dup=1 drop=0 speed=6.33x    frame=15239 fps=151 q=32.0 size=   26537kB time=00:10:35.75 bitrate= 341.9kbits/s dup=1 drop=0 speed=6.32x    frame=15285 fps=151 q=32.0 size=   26650kB time=00:10:37.67 bitrate= 342.4kbits/s dup=1 drop=0 speed=6.31x    frame=15330 fps=151 q=32.0 size=   26739kB time=00:10:39.55 bitrate= 342.5kbits/s dup=1 drop=0 speed=6.29x    frame=15368 fps=150 q=32.0 size=   26895kB time=00:10:41.13 bitrate= 343.7kbits/s dup=1 drop=0 speed=6.28x    frame=15437 fps=150 q=32.0 size=   27026kB time=00:10:44.03 bitrate= 343.8kbits/s dup=1 drop=0 speed=6.27x    frame=15531 fps=150 q=32.0 size=   27154kB time=00:10:47.91 bitrate= 343.3kbits/s dup=1 drop=0 speed=6.28x    frame=15606 fps=150 q=32.0 size=   27311kB time=00:10:51.07 bitrate= 343.6kbits/s dup=1 drop=0 speed=6.28x    frame=15726 fps=151 q=32.0 size=   27432kB time=00:10:56.06 bitrate= 342.5kbits/s dup=1 drop=0 speed=6.29x    frame=15802 fps=151 q=32.0 size=   27547kB time=00:10:59.22 bitrate= 342.3kbits/s dup=1 drop=0 speed=6.29x    frame=15871 fps=151 q=32.0 size=   27673kB time=00:11:02.12 bitrate= 342.4kbits/s dup=1 drop=0 speed=6.29x    frame=15955 fps=151 q=32.0 size=   27813kB time=00:11:05.62 bitrate= 342.3kbits/s dup=1 drop=0 speed=6.29x    frame=16024 fps=151 q=32.0 size=   27904kB time=00:11:08.48 bitrate= 341.9kbits/s dup=1 drop=0 speed=6.29x    frame=16106 fps=151 q=32.0 size=   28045kB time=00:11:11.89 bitrate= 341.9kbits/s dup=1 drop=0 speed=6.29x    frame=16166 fps=151 q=32.0 size=   28186kB time=00:11:14.41 bitrate= 342.4kbits/s dup=1 drop=0 speed=6.28x    frame=16242 fps=151 q=32.0 size=   28403kB time=00:11:17.56 bitrate= 343.4kbits/s dup=1 drop=0 speed=6.28x    frame=16313 fps=151 q=32.0 size=   28522kB time=00:11:20.55 bitrate= 343.3kbits/s dup=1 drop=0 speed=6.28x    frame=16400 fps=151 q=32.0 size=   28648kB time=00:11:24.18 bitrate= 343.0kbits/s dup=1 drop=0 speed=6.29x    frame=16470 fps=151 q=32.0 size=   28820kB time=00:11:27.08 bitrate= 343.6kbits/s dup=1 drop=0 speed=6.28x    frame=16551 fps=151 q=32.0 size=   28931kB time=00:11:30.49 bitrate= 343.2kbits/s dup=1 drop=0 speed=6.29x    frame=16633 fps=151 q=32.0 size=   29059kB time=00:11:33.86 bitrate= 343.1kbits/s dup=1 drop=0 speed=6.29x    frame=16703 fps=151 q=32.0 size=   29123kB time=00:11:36.81 bitrate= 342.4kbits/s dup=1 drop=0 speed=6.29x    frame=16785 fps=151 q=32.0 size=   29234kB time=00:11:40.22 bitrate= 342.0kbits/s dup=1 drop=0 speed=6.29x    frame=16872 fps=151 q=32.0 size=   29332kB time=00:11:43.85 bitrate= 341.4kbits/s dup=1 drop=0 speed=6.29x    frame=16963 fps=151 q=32.0 size=   29412kB time=00:11:47.64 bitrate= 340.5kbits/s dup=1 drop=0 speed= 6.3x    frame=17061 fps=151 q=32.0 size=   29514kB time=00:11:51.74 bitrate= 339.7kbits/s dup=1 drop=0 speed=6.31x    frame=17146 fps=151 q=32.0 size=   29626kB time=00:11:55.28 bitrate= 339.3kbits/s dup=1 drop=0 speed=6.31x    frame=17246 fps=151 q=32.0 size=   29710kB time=00:11:59.46 bitrate= 338.3kbits/s dup=1 drop=0 speed=6.32x    frame=17327 fps=151 q=32.0 size=   29820kB time=00:12:02.83 bitrate= 338.0kbits/s dup=1 drop=0 speed=6.32x    frame=17383 fps=151 q=32.0 size=   29944kB time=00:12:05.18 bitrate= 338.3kbits/s dup=1 drop=0 speed=6.31x    frame=17474 fps=151 q=32.0 size=   30098kB time=00:12:08.98 bitrate= 338.2kbits/s dup=1 drop=0 speed=6.31x    frame=17556 fps=151 q=32.0 size=   30216kB time=00:12:12.39 bitrate= 338.0kbits/s dup=1 drop=0 speed=6.32x    frame=17617 fps=151 q=32.0 size=   30324kB time=00:12:14.91 bitrate= 338.0kbits/s dup=1 drop=0 speed=6.31x    frame=17685 fps=151 q=32.0 size=   30458kB time=00:12:17.77 bitrate= 338.2kbits/s dup=1 drop=0 speed=6.31x    frame=17751 fps=151 q=32.0 size=   30637kB time=00:12:20.50 bitrate= 338.9kbits/s dup=1 drop=0 speed= 6.3x    frame=17807 fps=151 q=32.0 size=   30812kB time=00:12:22.89 bitrate= 339.8kbits/s dup=1 drop=0 speed= 6.3x    frame=17901 fps=151 q=32.0 size=   30968kB time=00:12:26.77 bitrate= 339.7kbits/s dup=1 drop=0 speed= 6.3x    frame=17957 fps=151 q=32.0 size=   31071kB time=00:12:29.12 bitrate= 339.8kbits/s dup=1 drop=0 speed= 6.3x    frame=18021 fps=151 q=32.0 size=   31172kB time=00:12:31.76 bitrate= 339.7kbits/s dup=1 drop=0 speed=6.29x    frame=18072 fps=151 q=32.0 size=   31306kB time=00:12:33.89 bitrate= 340.2kbits/s dup=1 drop=0 speed=6.28x    frame=18123 fps=150 q=32.0 size=   31489kB time=00:12:36.03 bitrate= 341.2kbits/s dup=1 drop=0 speed=6.27x    frame=18175 fps=150 q=32.0 size=   31646kB time=00:12:38.25 bitrate= 341.9kbits/s dup=1 drop=0 speed=6.27x    frame=18238 fps=150 q=32.0 size=   31792kB time=00:12:40.85 bitrate= 342.3kbits/s dup=1 drop=0 speed=6.26x    frame=18272 fps=150 q=32.0 size=   31928kB time=00:12:42.26 bitrate= 343.1kbits/s dup=1 drop=0 speed=6.25x    frame=18306 fps=149 q=32.0 size=   32043kB time=00:12:43.67 bitrate= 343.7kbits/s dup=1 drop=0 speed=6.23x    frame=18365 fps=149 q=32.0 size=   32185kB time=00:12:46.10 bitrate= 344.2kbits/s dup=1 drop=0 speed=6.23x    frame=18448 fps=149 q=32.0 size=   32311kB time=00:12:49.60 bitrate= 343.9kbits/s dup=1 drop=0 speed=6.23x    frame=18533 fps=149 q=32.0 size=   32483kB time=00:12:53.14 bitrate= 344.2kbits/s dup=1 drop=0 speed=6.23x    frame=18624 fps=150 q=32.0 size=   32587kB time=00:12:56.93 bitrate= 343.6kbits/s dup=1 drop=0 speed=6.24x    frame=18719 fps=150 q=32.0 size=   32758kB time=00:13:00.90 bitrate= 343.6kbits/s dup=1 drop=0 speed=6.24x    frame=18820 fps=150 q=32.0 size=   32849kB time=00:13:05.13 bitrate= 342.7kbits/s dup=1 drop=0 speed=6.25x    frame=18901 fps=150 q=32.0 size=   32988kB time=00:13:08.50 bitrate= 342.7kbits/s dup=1 drop=0 speed=6.25x    frame=18949 fps=150 q=32.0 size=   33121kB time=00:13:10.50 bitrate= 343.2kbits/s dup=1 drop=0 speed=6.24x    frame=18982 fps=149 q=32.0 size=   33204kB time=00:13:11.87 bitrate= 343.5kbits/s dup=1 drop=0 speed=6.23x    frame=19017 fps=149 q=32.0 size=   33297kB time=00:13:13.32 bitrate= 343.8kbits/s dup=1 drop=0 speed=6.21x    frame=19049 fps=149 q=32.0 size=   33388kB time=00:13:14.64 bitrate= 344.2kbits/s dup=1 drop=0 speed= 6.2x    frame=19080 fps=148 q=32.0 size=   33492kB time=00:13:15.96 bitrate= 344.7kbits/s dup=1 drop=0 speed=6.18x    frame=19116 fps=148 q=32.0 size=   33591kB time=00:13:17.46 bitrate= 345.1kbits/s dup=1 drop=0 speed=6.17x    frame=19147 fps=148 q=32.0 size=   33711kB time=00:13:18.78 bitrate= 345.7kbits/s dup=1 drop=0 speed=6.16x    frame=19210 fps=148 q=32.0 size=   33841kB time=00:13:21.38 bitrate= 345.9kbits/s dup=1 drop=0 speed=6.15x    frame=19291 fps=148 q=32.0 size=   33956kB time=00:13:24.75 bitrate= 345.7kbits/s dup=1 drop=0 speed=6.16x    frame=19382 fps=148 q=32.0 size=   34093kB time=00:13:28.55 bitrate= 345.4kbits/s dup=1 drop=0 speed=6.16x    frame=19463 fps=148 q=32.0 size=   34230kB time=00:13:31.92 bitrate= 345.4kbits/s dup=1 drop=0 speed=6.16x    frame=19512 fps=148 q=32.0 size=   34386kB time=00:13:33.97 bitrate= 346.1kbits/s dup=1 drop=0 speed=6.15x    frame=19564 fps=147 q=32.0 size=   34504kB time=00:13:36.10 bitrate= 346.3kbits/s dup=1 drop=0 speed=6.15x    frame=19654 fps=147 q=32.0 size=   34633kB time=00:13:39.90 bitrate= 346.0kbits/s dup=1 drop=0 speed=6.15x    frame=19763 fps=148 q=32.0 size=   34731kB time=00:13:44.42 bitrate= 345.1kbits/s dup=1 drop=0 speed=6.16x    frame=19873 fps=148 q=32.0 size=   34853kB time=00:13:49.03 bitrate= 344.4kbits/s dup=1 drop=0 speed=6.17x    frame=19970 fps=148 q=32.0 size=   35020kB time=00:13:53.04 bitrate= 344.4kbits/s dup=1 drop=0 speed=6.18x    frame=20103 fps=149 q=32.0 size=   35130kB time=00:13:58.63 bitrate= 343.2kbits/s dup=1 drop=0 speed= 6.2x    frame=20210 fps=149 q=32.0 size=   35272kB time=00:14:03.11 bitrate= 342.7kbits/s dup=1 drop=0 speed=6.21x    frame=20290 fps=149 q=32.0 size=   35429kB time=00:14:06.44 bitrate= 342.9kbits/s dup=1 drop=0 speed=6.21x    frame=20376 fps=149 q=32.0 size=   35547kB time=00:14:10.02 bitrate= 342.6kbits/s dup=1 drop=0 speed=6.21x    frame=20456 fps=149 q=32.0 size=   35737kB time=00:14:13.35 bitrate= 343.1kbits/s dup=1 drop=0 speed=6.21x    frame=20531 fps=149 q=32.0 size=   35876kB time=00:14:16.47 bitrate= 343.2kbits/s dup=1 drop=0 speed=6.21x    frame=20588 fps=149 q=32.0 size=   35980kB time=00:14:18.85 bitrate= 343.2kbits/s dup=1 drop=0 speed=6.21x    frame=20641 fps=149 q=32.0 size=   36088kB time=00:14:21.07 bitrate= 343.3kbits/s dup=1 drop=0 speed= 6.2x    frame=20686 fps=148 q=32.0 size=   36172kB time=00:14:22.95 bitrate= 343.4kbits/s dup=1 drop=0 speed=6.19x    frame=20716 fps=148 q=32.0 size=   36309kB time=00:14:24.19 bitrate= 344.2kbits/s dup=1 drop=0 speed=6.18x    frame=20752 fps=148 q=32.0 size=   36447kB time=00:14:25.68 bitrate= 344.9kbits/s dup=1 drop=0 speed=6.17x    frame=20799 fps=148 q=32.0 size=   36591kB time=00:14:27.64 bitrate= 345.5kbits/s dup=1 drop=0 speed=6.16x    frame=20880 fps=148 q=32.0 size=   36703kB time=00:14:31.01 bitrate= 345.2kbits/s dup=1 drop=0 speed=6.16x    frame=20976 fps=148 q=32.0 size=   36819kB time=00:14:35.03 bitrate= 344.7kbits/s dup=1 drop=0 speed=6.17x    frame=21066 fps=148 q=32.0 size=   36917kB time=00:14:38.78 bitrate= 344.1kbits/s dup=1 drop=0 speed=6.17x    frame=21153 fps=148 q=32.0 size=   37033kB time=00:14:42.41 bitrate= 343.8kbits/s dup=1 drop=0 speed=6.17x    frame=21250 fps=148 q=32.0 size=   37155kB time=00:14:46.46 bitrate= 343.4kbits/s dup=1 drop=0 speed=6.18x    frame=21332 fps=148 q=32.0 size=   37253kB time=00:14:49.87 bitrate= 342.9kbits/s dup=1 drop=0 speed=6.18x    frame=21415 fps=148 q=32.0 size=   37375kB time=00:14:53.33 bitrate= 342.7kbits/s dup=1 drop=0 speed=6.18x    frame=21500 fps=148 q=32.0 size=   37492kB time=00:14:56.87 bitrate= 342.4kbits/s dup=1 drop=0 speed=6.19x    frame=21596 fps=148 q=32.0 size=   37567kB time=00:15:00.92 bitrate= 341.6kbits/s dup=1 drop=0 speed=6.19x    frame=21661 fps=148 q=32.0 size=   37665kB time=00:15:03.61 bitrate= 341.5kbits/s dup=1 drop=0 speed=6.19x    frame=21701 fps=148 q=32.0 size=   37792kB time=00:15:05.28 bitrate= 342.0kbits/s dup=1 drop=0 speed=6.18x    frame=21745 fps=148 q=32.0 size=   37941kB time=00:15:07.11 bitrate= 342.6kbits/s dup=1 drop=0 speed=6.17x    frame=21787 fps=148 q=32.0 size=   38053kB time=00:15:08.86 bitrate= 343.0kbits/s dup=1 drop=0 speed=6.16x    frame=21838 fps=148 q=32.0 size=   38199kB time=00:15:10.99 bitrate= 343.5kbits/s dup=1 drop=0 speed=6.15x    frame=21884 fps=147 q=32.0 size=   38312kB time=00:15:12.91 bitrate= 343.8kbits/s dup=1 drop=0 speed=6.15x    frame=21931 fps=147 q=32.0 size=   38466kB time=00:15:14.83 bitrate= 344.4kbits/s dup=1 drop=0 speed=6.14x    frame=21975 fps=147 q=32.0 size=   38563kB time=00:15:16.71 bitrate= 344.6kbits/s dup=1 drop=0 speed=6.13x    frame=22026 fps=147 q=32.0 size=   38694kB time=00:15:18.84 bitrate= 345.0kbits/s dup=1 drop=0 speed=6.12x    frame=22076 fps=147 q=32.0 size=   38818kB time=00:15:20.89 bitrate= 345.3kbits/s dup=1 drop=0 speed=6.12x    frame=22120 fps=146 q=32.0 size=   38952kB time=00:15:22.73 bitrate= 345.8kbits/s dup=1 drop=0 speed=6.11x    frame=22198 fps=146 q=32.0 size=   39126kB time=00:15:25.97 bitrate= 346.1kbits/s dup=1 drop=0 speed=6.11x    frame=22290 fps=147 q=32.0 size=   39274kB time=00:15:29.81 bitrate= 346.0kbits/s dup=1 drop=0 speed=6.11x    frame=22396 fps=147 q=32.0 size=   39379kB time=00:15:34.25 bitrate= 345.3kbits/s dup=1 drop=0 speed=6.12x    frame=22466 fps=147 q=32.0 size=   39496kB time=00:15:37.19 bitrate= 345.2kbits/s dup=1 drop=0 speed=6.12x    frame=22533 fps=147 q=32.0 size=   39610kB time=00:15:39.96 bitrate= 345.2kbits/s dup=1 drop=0 speed=6.12x    frame=22601 fps=147 q=32.0 size=   39709kB time=00:15:42.82 bitrate= 345.0kbits/s dup=1 drop=0 speed=6.12x    frame=22654 fps=146 q=29.0 size=   39784kB time=00:15:45.04 bitrate= 344.9kbits/s dup=1 drop=0 speed=6.11x    frame=22722 fps=146 q=32.0 size=   39940kB time=00:15:47.86 bitrate= 345.2kbits/s dup=1 drop=0 speed=6.11x    frame=22786 fps=146 q=32.0 size=   40044kB time=00:15:50.50 bitrate= 345.1kbits/s dup=1 drop=0 speed=6.11x    frame=22837 fps=146 q=32.0 size=   40143kB time=00:15:52.64 bitrate= 345.2kbits/s dup=1 drop=0 speed= 6.1x    frame=22923 fps=146 q=32.0 size=   40254kB time=00:15:56.22 bitrate= 344.9kbits/s dup=1 drop=0 speed= 6.1x    frame=22970 fps=146 q=32.0 size=   40328kB time=00:15:58.18 bitrate= 344.8kbits/s dup=1 drop=0 speed= 6.1x    frame=23008 fps=146 q=32.0 size=   40423kB time=00:15:59.76 bitrate= 345.0kbits/s dup=1 drop=0 speed=6.09x    frame=23078 fps=146 q=29.0 size=   40538kB time=00:16:02.71 bitrate= 345.0kbits/s dup=1 drop=0 speed=6.09x    frame=23136 fps=146 q=32.0 size=   40697kB time=00:16:05.14 bitrate= 345.4kbits/s dup=1 drop=0 speed=6.08x    frame=23186 fps=146 q=32.0 size=   40835kB time=00:16:07.19 bitrate= 345.9kbits/s dup=1 drop=0 speed=6.08x    frame=23249 fps=146 q=32.0 size=   40956kB time=00:16:09.83 bitrate= 345.9kbits/s dup=1 drop=0 speed=6.07x    frame=23303 fps=145 q=32.0 size=   41064kB time=00:16:12.09 bitrate= 346.1kbits/s dup=1 drop=0 speed=6.07x    frame=23374 fps=145 q=32.0 size=   41187kB time=00:16:15.04 bitrate= 346.0kbits/s dup=1 drop=0 speed=6.07x    frame=23458 fps=145 q=32.0 size=   41312kB time=00:16:18.53 bitrate= 345.9kbits/s dup=1 drop=0 speed=6.07x    frame=23514 fps=145 q=32.0 size=   41431kB time=00:16:20.88 bitrate= 346.0kbits/s dup=1 drop=0 speed=6.06x    frame=23575 fps=145 q=32.0 size=   41540kB time=00:16:23.40 bitrate= 346.0kbits/s dup=1 drop=0 speed=6.06x    frame=23629 fps=145 q=32.0 size=   41699kB time=00:16:25.66 bitrate= 346.6kbits/s dup=1 drop=0 speed=6.05x    frame=23711 fps=145 q=32.0 size=   41824kB time=00:16:29.12 bitrate= 346.4kbits/s dup=1 drop=0 speed=6.06x    frame=23806 fps=145 q=32.0 size=   41948kB time=00:16:33.08 bitrate= 346.0kbits/s dup=1 drop=0 speed=6.06x    frame=23884 fps=145 q=32.0 size=   42062kB time=00:16:36.33 bitrate= 345.8kbits/s dup=1 drop=0 speed=6.06x    frame=23959 fps=145 q=32.0 size=   42197kB time=00:16:39.44 bitrate= 345.9kbits/s dup=1 drop=0 speed=6.06x    frame=24047 fps=145 q=32.0 size=   42300kB time=00:16:43.11 bitrate= 345.4kbits/s dup=1 drop=0 speed=6.07x    frame=24128 fps=145 q=32.0 size=   42431kB time=00:16:46.48 bitrate= 345.4kbits/s dup=1 drop=0 speed=6.07x    frame=24235 fps=146 q=32.0 size=   42531kB time=00:16:50.96 bitrate= 344.6kbits/s dup=1 drop=0 speed=6.08x    frame=24307 fps=146 q=32.0 size=   42640kB time=00:16:53.95 bitrate= 344.5kbits/s dup=1 drop=0 speed=6.08x    frame=24386 fps=146 q=32.0 size=   42762kB time=00:16:57.28 bitrate= 344.4kbits/s dup=1 drop=0 speed=6.08x    frame=24428 fps=146 q=32.0 size=   42927kB time=00:16:59.03 bitrate= 345.1kbits/s dup=1 drop=0 speed=6.07x    frame=24467 fps=145 q=32.0 size=   43045kB time=00:17:00.65 bitrate= 345.5kbits/s dup=1 drop=0 speed=6.06x    frame=24552 fps=145 q=32.0 size=   43215kB time=00:17:04.19 bitrate= 345.7kbits/s dup=1 drop=0 speed=6.06x    frame=24650 fps=146 q=32.0 size=   43389kB time=00:17:08.28 bitrate= 345.7kbits/s dup=1 drop=0 speed=6.07x    frame=24761 fps=146 q=32.0 size=   43515kB time=00:17:12.89 bitrate= 345.1kbits/s dup=1 drop=0 speed=6.08x    frame=24822 fps=146 q=32.0 size=   43664kB time=00:17:15.45 bitrate= 345.4kbits/s dup=1 drop=0 speed=6.08x    frame=24921 fps=146 q=32.0 size=   43785kB time=00:17:19.59 bitrate= 345.0kbits/s dup=1 drop=0 speed=6.08x    frame=25027 fps=146 q=32.0 size=   43931kB time=00:17:23.99 bitrate= 344.7kbits/s dup=1 drop=0 speed=6.09x    frame=25136 fps=146 q=32.0 size=   44033kB time=00:17:28.51 bitrate= 344.0kbits/s dup=1 drop=0 speed= 6.1x    frame=25198 fps=146 q=32.0 size=   44149kB time=00:17:31.11 bitrate= 344.1kbits/s dup=1 drop=0 speed= 6.1x    frame=25251 fps=146 q=32.0 size=   44251kB time=00:17:33.33 bitrate= 344.2kbits/s dup=1 drop=0 speed=6.09x    frame=25307 fps=146 q=32.0 size=   44366kB time=00:17:35.68 bitrate= 344.3kbits/s dup=1 drop=0 speed=6.08x    frame=25371 fps=146 q=32.0 size=   44486kB time=00:17:38.36 bitrate= 344.3kbits/s dup=1 drop=0 speed=6.08x    frame=25444 fps=146 q=32.0 size=   44610kB time=00:17:41.35 bitrate= 344.3kbits/s dup=1 drop=0 speed=6.08x    frame=25513 fps=146 q=32.0 size=   44723kB time=00:17:44.25 bitrate= 344.2kbits/s dup=1 drop=0 speed=6.08x    frame=25564 fps=146 q=32.0 size=   44791kB time=00:17:46.39 bitrate= 344.1kbits/s dup=1 drop=0 speed=6.07x    frame=25618 fps=145 q=32.0 size=   44865kB time=00:17:48.65 bitrate= 343.9kbits/s dup=1 drop=0 speed=6.07x    frame=25694 fps=146 q=32.0 size=   44958kB time=00:17:51.80 bitrate= 343.6kbits/s dup=1 drop=0 speed=6.07x    frame=25799 fps=146 q=32.0 size=   45056kB time=00:17:56.20 bitrate= 343.0kbits/s dup=1 drop=0 speed=6.08x    frame=25914 fps=146 q=32.0 size=   45147kB time=00:18:00.98 bitrate= 342.1kbits/s dup=1 drop=0 speed=6.09x    frame=26033 fps=146 q=32.0 size=   45211kB time=00:18:05.93 bitrate= 341.1kbits/s dup=1 drop=0 speed= 6.1x    frame=26130 fps=146 q=32.0 size=   45336kB time=00:18:10.02 bitrate= 340.7kbits/s dup=1 drop=0 speed= 6.1x    frame=26232 fps=146 q=32.0 size=   45454kB time=00:18:14.25 bitrate= 340.3kbits/s dup=1 drop=0 speed=6.11x    frame=26388 fps=147 q=32.0 size=   45546kB time=00:18:20.77 bitrate= 339.0kbits/s dup=1 drop=0 speed=6.13x    frame=26483 fps=147 q=32.0 size=   45634kB time=00:18:24.70 bitrate= 338.4kbits/s dup=1 drop=0 speed=6.13x    frame=26548 fps=147 q=32.0 size=   45784kB time=00:18:27.43 bitrate= 338.7kbits/s dup=1 drop=0 speed=6.13x    frame=26716 fps=147 q=32.0 size=   45905kB time=00:18:34.43 bitrate= 337.4kbits/s dup=1 drop=0 speed=6.15x    frame=26806 fps=148 q=32.0 size=   46019kB time=00:18:38.18 bitrate= 337.1kbits/s dup=1 drop=0 speed=6.16x    frame=26905 fps=148 q=32.0 size=   46129kB time=00:18:42.32 bitrate= 336.7kbits/s dup=1 drop=0 speed=6.16x    frame=27005 fps=148 q=32.0 size=   46281kB time=00:18:46.50 bitrate= 336.6kbits/s dup=1 drop=0 speed=6.17x    frame=27109 fps=148 q=32.0 size=   46453kB time=00:18:50.81 bitrate= 336.5kbits/s dup=1 drop=0 speed=6.17x    frame=27214 fps=148 q=32.0 size=   46579kB time=00:18:55.16 bitrate= 336.1kbits/s dup=1 drop=0 speed=6.18x    frame=27336 fps=148 q=32.0 size=   46709kB time=00:19:00.33 bitrate= 335.6kbits/s dup=1 drop=0 speed=6.19x    frame=27418 fps=148 q=32.0 size=   46833kB time=00:19:03.70 bitrate= 335.5kbits/s dup=1 drop=0 speed=6.19x    frame=27498 fps=148 q=32.0 size=   46970kB time=00:19:07.07 bitrate= 335.4kbits/s dup=1 drop=0 speed=6.19x    frame=27608 fps=149 q=32.0 size=   47079kB time=00:19:11.63 bitrate= 334.9kbits/s dup=1 drop=0 speed= 6.2x    frame=27724 fps=149 q=32.0 size=   47208kB time=00:19:16.50 bitrate= 334.4kbits/s dup=1 drop=0 speed=6.21x    frame=27866 fps=149 q=32.0 size=   47297kB time=00:19:22.39 bitrate= 333.3kbits/s dup=1 drop=0 speed=6.23x    frame=27962 fps=149 q=32.0 size=   47406kB time=00:19:26.40 bitrate= 332.9kbits/s dup=1 drop=0 speed=6.23x    frame=28040 fps=149 q=32.0 size=   47488kB time=00:19:29.64 bitrate= 332.6kbits/s dup=1 drop=0 speed=6.23x    frame=28131 fps=149 q=32.0 size=   47588kB time=00:19:33.44 bitrate= 332.2kbits/s dup=1 drop=0 speed=6.23x    frame=28224 fps=150 q=32.0 size=   47691kB time=00:19:37.32 bitrate= 331.8kbits/s dup=1 drop=0 speed=6.24x    frame=28325 fps=150 q=32.0 size=   47824kB time=00:19:41.54 bitrate= 331.6kbits/s dup=1 drop=0 speed=6.24x    frame=28441 fps=150 q=32.0 size=   47946kB time=00:19:46.36 bitrate= 331.1kbits/s dup=1 drop=0 speed=6.25x    frame=28527 fps=150 q=32.0 size=   48032kB time=00:19:49.95 bitrate= 330.7kbits/s dup=1 drop=0 speed=6.25x    frame=28602 fps=150 q=32.0 size=   48113kB time=00:19:53.11 bitrate= 330.3kbits/s dup=1 drop=0 speed=6.26x    frame=28659 fps=150 q=32.0 size=   48240kB time=00:19:55.49 bitrate= 330.6kbits/s dup=1 drop=0 speed=6.25x    frame=28717 fps=150 q=32.0 size=   48321kB time=00:19:57.88 bitrate= 330.5kbits/s dup=1 drop=0 speed=6.25x    frame=28758 fps=150 q=32.0 size=   48412kB time=00:19:59.59 bitrate= 330.6kbits/s dup=1 drop=0 speed=6.24x    frame=28812 fps=149 q=32.0 size=   48484kB time=00:20:01.85 bitrate= 330.5kbits/s dup=1 drop=0 speed=6.24x    frame=28857 fps=149 q=32.0 size=   48623kB time=00:20:03.73 bitrate= 330.9kbits/s dup=1 drop=0 speed=6.23x    frame=28901 fps=149 q=32.0 size=   48728kB time=00:20:05.56 bitrate= 331.1kbits/s dup=1 drop=0 speed=6.22x    frame=28954 fps=149 q=32.0 size=   48834kB time=00:20:07.78 bitrate= 331.2kbits/s dup=1 drop=0 speed=6.21x    frame=28992 fps=149 q=32.0 size=   48951kB time=00:20:09.36 bitrate= 331.6kbits/s dup=1 drop=0 speed=6.21x    frame=29033 fps=149 q=32.0 size=   49080kB time=00:20:11.07 bitrate= 332.0kbits/s dup=1 drop=0 speed= 6.2x    frame=29077 fps=148 q=32.0 size=   49210kB time=00:20:12.90 bitrate= 332.4kbits/s dup=1 drop=0 speed=6.19x    frame=29125 fps=148 q=32.0 size=   49355kB time=00:20:14.91 bitrate= 332.8kbits/s dup=1 drop=0 speed=6.19x    frame=29169 fps=148 q=32.0 size=   49497kB time=00:20:16.74 bitrate= 333.2kbits/s dup=1 drop=0 speed=6.18x    frame=29244 fps=148 q=29.0 size=   49623kB time=00:20:19.86 bitrate= 333.2kbits/s dup=1 drop=0 speed=6.18x    frame=29318 fps=148 q=32.0 size=   49745kB time=00:20:22.97 bitrate= 333.2kbits/s dup=1 drop=0 speed=6.18x    frame=29395 fps=148 q=32.0 size=   49838kB time=00:20:26.17 bitrate= 333.0kbits/s dup=1 drop=0 speed=6.18x    frame=29466 fps=148 q=32.0 size=   49938kB time=00:20:29.12 bitrate= 332.8kbits/s dup=1 drop=0 speed=6.18x    frame=29557 fps=148 q=32.0 size=   50041kB time=00:20:32.91 bitrate= 332.5kbits/s dup=1 drop=0 speed=6.18x    frame=29600 fps=148 q=32.0 size=   50142kB time=00:20:34.71 bitrate= 332.7kbits/s dup=1 drop=0 speed=6.18x    frame=29666 fps=148 q=32.0 size=   50264kB time=00:20:37.48 bitrate= 332.7kbits/s dup=1 drop=0 speed=6.18x    frame=29747 fps=148 q=29.0 size=   50444kB time=00:20:40.85 bitrate= 333.0kbits/s dup=1 drop=0 speed=6.18x    frame=29794 fps=148 q=32.0 size=   50576kB time=00:20:42.81 bitrate= 333.4kbits/s dup=1 drop=0 speed=6.17x    frame=29829 fps=148 q=32.0 size=   50737kB time=00:20:44.26 bitrate= 334.0kbits/s dup=1 drop=0 speed=6.16x    frame=29860 fps=148 q=32.0 size=   50871kB time=00:20:45.59 bitrate= 334.6kbits/s dup=1 drop=0 speed=6.15x    frame=29897 fps=147 q=32.0 size=   51001kB time=00:20:47.12 bitrate= 335.0kbits/s dup=1 drop=0 speed=6.15x    frame=29979 fps=147 q=32.0 size=   51129kB time=00:20:50.53 bitrate= 334.9kbits/s dup=1 drop=0 speed=6.15x    frame=30075 fps=147 q=32.0 size=   51260kB time=00:20:54.50 bitrate= 334.7kbits/s dup=1 drop=0 speed=6.15x    frame=30187 fps=148 q=32.0 size=   51349kB time=00:20:59.24 bitrate= 334.0kbits/s dup=1 drop=0 speed=6.16x    frame=30284 fps=148 q=32.0 size=   51438kB time=00:21:03.25 bitrate= 333.6kbits/s dup=1 drop=0 speed=6.16x    frame=30392 fps=148 q=32.0 size=   51547kB time=00:21:07.77 bitrate= 333.1kbits/s dup=1 drop=0 speed=6.17x    frame=30522 fps=148 q=32.0 size=   51626kB time=00:21:13.19 bitrate= 332.2kbits/s dup=1 drop=0 speed=6.18x    frame=30628 fps=148 q=32.0 size=   51728kB time=00:21:17.59 bitrate= 331.7kbits/s dup=1 drop=0 speed=6.19x    frame=30724 fps=148 q=32.0 size=   51824kB time=00:21:21.60 bitrate= 331.3kbits/s dup=1 drop=0 speed=6.19x    frame=30808 fps=148 q=32.0 size=   51918kB time=00:21:25.09 bitrate= 331.0kbits/s dup=1 drop=0 speed=6.19x    frame=30859 fps=148 q=32.0 size=   52022kB time=00:21:27.23 bitrate= 331.1kbits/s dup=1 drop=0 speed=6.19x    frame=30946 fps=148 q=32.0 size=   52134kB time=00:21:30.85 bitrate= 330.9kbits/s dup=1 drop=0 speed=6.19x    frame=31019 fps=148 q=32.0 size=   52229kB time=00:21:33.88 bitrate= 330.7kbits/s dup=1 drop=0 speed=6.19x    frame=31115 fps=149 q=32.0 size=   52315kB time=00:21:37.89 bitrate= 330.2kbits/s dup=1 drop=0 speed= 6.2x    frame=31169 fps=148 q=32.0 size=   52422kB time=00:21:40.16 bitrate= 330.3kbits/s dup=1 drop=0 speed=6.19x    frame=31226 fps=148 q=32.0 size=   52509kB time=00:21:42.55 bitrate= 330.2kbits/s dup=1 drop=0 speed=6.19x    frame=31301 fps=148 q=32.0 size=   52621kB time=00:21:45.66 bitrate= 330.2kbits/s dup=1 drop=0 speed=6.19x    frame=31350 fps=148 q=32.0 size=   52714kB time=00:21:47.71 bitrate= 330.2kbits/s dup=1 drop=0 speed=6.18x    frame=31404 fps=148 q=32.0 size=   52811kB time=00:21:49.97 bitrate= 330.3kbits/s dup=1 drop=0 speed=6.18x    frame=31457 fps=148 q=32.0 size=   52913kB time=00:21:52.19 bitrate= 330.3kbits/s dup=1 drop=0 speed=6.17x    frame=31512 fps=148 q=32.0 size=   53018kB time=00:21:54.49 bitrate= 330.4kbits/s dup=1 drop=0 speed=6.17x    frame=31570 fps=148 q=32.0 size=   53137kB time=00:21:56.88 bitrate= 330.5kbits/s dup=1 drop=0 speed=6.17x    frame=31626 fps=148 q=32.0 size=   53284kB time=00:21:59.23 bitrate= 330.9kbits/s dup=1 drop=0 speed=6.16x    frame=31683 fps=148 q=32.0 size=   53444kB time=00:22:01.62 bitrate= 331.3kbits/s dup=1 drop=0 speed=6.16x    frame=31740 fps=148 q=32.0 size=   53608kB time=00:22:03.96 bitrate= 331.7kbits/s dup=1 drop=0 speed=6.15x    frame=31802 fps=147 q=32.0 size=   53809kB time=00:22:06.57 bitrate= 332.3kbits/s dup=1 drop=0 speed=6.15x    frame=31855 fps=147 q=32.0 size=   53996kB time=00:22:08.79 bitrate= 332.9kbits/s dup=1 drop=0 speed=6.15x    frame=31898 fps=147 q=32.0 size=   54184kB time=00:22:10.58 bitrate= 333.6kbits/s dup=1 drop=0 speed=6.14x    frame=31950 fps=147 q=32.0 size=   54353kB time=00:22:12.75 bitrate= 334.1kbits/s dup=1 drop=0 speed=6.14x    frame=32026 fps=147 q=32.0 size=   54569kB time=00:22:15.91 bitrate= 334.6kbits/s dup=1 drop=0 speed=6.14x    frame=32071 fps=147 q=32.0 size=   54746kB time=00:22:17.79 bitrate= 335.2kbits/s dup=1 drop=0 speed=6.13x    frame=32130 fps=147 q=32.0 size=   54957kB time=00:22:20.26 bitrate= 335.9kbits/s dup=1 drop=0 speed=6.13x    frame=32211 fps=147 q=32.0 size=   55104kB time=00:22:23.59 bitrate= 336.0kbits/s dup=1 drop=0 speed=6.13x    frame=32292 fps=147 q=32.0 size=   55249kB time=00:22:27.00 bitrate= 336.0kbits/s dup=1 drop=0 speed=6.13x    frame=32337 fps=147 q=32.0 size=   55384kB time=00:22:28.88 bitrate= 336.4kbits/s dup=1 drop=0 speed=6.12x    frame=32381 fps=147 q=32.0 size=   55533kB time=00:22:30.76 bitrate= 336.8kbits/s dup=1 drop=0 speed=6.12x    frame=32437 fps=147 q=32.0 size=   55671kB time=00:22:33.06 bitrate= 337.1kbits/s dup=1 drop=0 speed=6.11x    frame=32497 fps=146 q=32.0 size=   55786kB time=00:22:35.58 bitrate= 337.1kbits/s dup=1 drop=0 speed=6.11x    frame=32551 fps=146 q=32.0 size=   55890kB time=00:22:37.80 bitrate= 337.2kbits/s dup=1 drop=0 speed=6.11x    frame=32584 fps=146 q=32.0 size=   56070kB time=00:22:39.21 bitrate= 337.9kbits/s dup=1 drop=0 speed= 6.1x    frame=32613 fps=146 q=32.0 size=   56220kB time=00:22:40.40 bitrate= 338.5kbits/s dup=1 drop=0 speed=6.09x    frame=32667 fps=146 q=32.0 size=   56351kB time=00:22:42.66 bitrate= 338.8kbits/s dup=1 drop=0 speed=6.09x    frame=32702 fps=146 q=32.0 size=   56474kB time=00:22:44.11 bitrate= 339.1kbits/s dup=1 drop=0 speed=6.08x    frame=32739 fps=146 q=32.0 size=   56621kB time=00:22:45.65 bitrate= 339.6kbits/s dup=1 drop=0 speed=6.07x    frame=32776 fps=145 q=32.0 size=   56769kB time=00:22:47.19 bitrate= 340.2kbits/s dup=1 drop=0 speed=6.06x    frame=32827 fps=145 q=32.0 size=   56892kB time=00:22:49.32 bitrate= 340.4kbits/s dup=1 drop=0 speed=6.06x    frame=32869 fps=145 q=32.0 size=   57022kB time=00:22:51.07 bitrate= 340.7kbits/s dup=1 drop=0 speed=6.05x    frame=32918 fps=145 q=32.0 size=   57131kB time=00:22:53.12 bitrate= 340.8kbits/s dup=1 drop=0 speed=6.05x    frame=32978 fps=145 q=32.0 size=   57234kB time=00:22:55.59 bitrate= 340.8kbits/s dup=1 drop=0 speed=6.05x    frame=33051 fps=145 q=32.0 size=   57375kB time=00:22:58.66 bitrate= 340.9kbits/s dup=1 drop=0 speed=6.05x    frame=33104 fps=145 q=32.0 size=   57485kB time=00:23:00.84 bitrate= 341.0kbits/s dup=1 drop=0 speed=6.04x    frame=33153 fps=145 q=32.0 size=   57613kB time=00:23:02.93 bitrate= 341.3kbits/s dup=1 drop=0 speed=6.04x    frame=33212 fps=145 q=32.0 size=   57742kB time=00:23:05.36 bitrate= 341.4kbits/s dup=1 drop=0 speed=6.03x    frame=33264 fps=145 q=32.0 size=   57855kB time=00:23:07.54 bitrate= 341.6kbits/s dup=1 drop=0 speed=6.03x    frame=33334 fps=145 q=32.0 size=   57946kB time=00:23:10.44 bitrate= 341.4kbits/s dup=1 drop=0 speed=6.03x    frame=33443 fps=145 q=32.0 size=   58038kB time=00:23:15.00 bitrate= 340.8kbits/s dup=1 drop=0 speed=6.04x    frame=33503 fps=145 q=32.0 size=   58192kB time=00:23:17.52 bitrate= 341.1kbits/s dup=1 drop=0 speed=6.03x    frame=33562 fps=145 q=32.0 size=   58342kB time=00:23:19.95 bitrate= 341.4kbits/s dup=1 drop=0 speed=6.03x    frame=33621 fps=144 q=32.0 size=   58459kB time=00:23:22.43 bitrate= 341.5kbits/s dup=1 drop=0 speed=6.03x    frame=33684 fps=144 q=32.0 size=   58609kB time=00:23:25.03 bitrate= 341.7kbits/s dup=1 drop=0 speed=6.03x    frame=33774 fps=145 q=32.0 size=   58758kB time=00:23:28.83 bitrate= 341.7kbits/s dup=1 drop=0 speed=6.03x    frame=33894 fps=145 q=32.0 size=   58873kB time=00:23:33.82 bitrate= 341.1kbits/s dup=1 drop=0 speed=6.04x    frame=33998 fps=145 q=32.0 size=   58985kB time=00:23:38.13 bitrate= 340.7kbits/s dup=1 drop=0 speed=6.04x    frame=34087 fps=145 q=32.0 size=   59109kB time=00:23:41.88 bitrate= 340.5kbits/s dup=1 drop=0 speed=6.04x    frame=34182 fps=145 q=32.0 size=   59250kB time=00:23:45.85 bitrate= 340.4kbits/s dup=1 drop=0 speed=6.05x    frame=34267 fps=145 q=32.0 size=   59333kB time=00:23:49.39 bitrate= 340.0kbits/s dup=1 drop=0 speed=6.05x    frame=34326 fps=145 q=32.0 size=   59439kB time=00:23:51.83 bitrate= 340.1kbits/s dup=1 drop=0 speed=6.05x    frame=34410 fps=145 q=32.0 size=   59557kB time=00:23:55.32 bitrate= 339.9kbits/s dup=1 drop=0 speed=6.05x    frame=34495 fps=145 q=32.0 size=   59676kB time=00:23:58.91 bitrate= 339.7kbits/s dup=1 drop=0 speed=6.05x    frame=34599 fps=145 q=32.0 size=   59796kB time=00:24:03.22 bitrate= 339.4kbits/s dup=1 drop=0 speed=6.06x    frame=34690 fps=145 q=32.0 size=   59952kB time=00:24:07.01 bitrate= 339.4kbits/s dup=1 drop=0 speed=6.06x    frame=34764 fps=145 q=32.0 size=   60073kB time=00:24:10.09 bitrate= 339.4kbits/s dup=1 drop=0 speed=6.06x    frame=34903 fps=146 q=32.0 size=   60237kB time=00:24:15.89 bitrate= 338.9kbits/s dup=1 drop=0 speed=6.07x    frame=35101 fps=146 q=32.0 size=   60363kB time=00:24:24.17 bitrate= 337.7kbits/s dup=1 drop=0 speed=6.09x    [mp4 @ 0x2513f20] Starting second pass: moving the moov atom to the beginning of the file
frame=35221 fps=146 q=-1.0 Lsize=   61291kB time=00:24:28.88 bitrate= 341.8kbits/s dup=1 drop=0 speed= 6.1x    
video:50896kB audio:9561kB subtitle:0kB other streams:0kB global headers:0kB muxing overhead: 1.380260%
[libx264 @ 0x25b17c0] frame I:359   Avg QP:21.50  size: 17387
[libx264 @ 0x25b17c0] frame P:11765 Avg QP:25.33  size:  3018
[libx264 @ 0x25b17c0] frame B:23097 Avg QP:29.51  size:   449
[libx264 @ 0x25b17c0] consecutive B-frames:  4.1%  7.2% 54.3% 34.4%
[libx264 @ 0x25b17c0] mb I  I16..4: 25.1% 51.8% 23.2%
[libx264 @ 0x25b17c0] mb P  I16..4:  4.3%  3.8%  1.4%  P16..4: 31.0%  4.8%  4.4%  0.2%  0.0%    skip:50.2%
[libx264 @ 0x25b17c0] mb B  I16..4:  0.4%  0.4%  0.1%  B16..8: 13.8%  1.1%  0.2%  direct: 0.4%  skip:83.5%  L0:40.4% L1:57.1% BI: 2.5%
[libx264 @ 0x25b17c0] 8x8 transform intra:43.3% inter:61.2%
[libx264 @ 0x25b17c0] coded y,uvDC,uvAC intra: 34.0% 52.1% 6.2% inter: 2.5% 4.4% 0.1%
[libx264 @ 0x25b17c0] i16 v,h,dc,p: 39% 30% 19% 12%
[libx264 @ 0x25b17c0] i8 v,h,dc,ddl,ddr,vr,hd,vl,hu: 23% 20% 36%  4%  3%  3%  3%  4%  4%
[libx264 @ 0x25b17c0] i4 v,h,dc,ddl,ddr,vr,hd,vl,hu: 30% 21% 20%  5%  5%  5%  5%  5%  4%
[libx264 @ 0x25b17c0] i8c dc,h,v,p: 49% 23% 23%  5%
[libx264 @ 0x25b17c0] Weighted P-Frames: Y:1.2% UV:1.0%
[libx264 @ 0x25b17c0] ref P L0: 61.7%  9.8% 12.2%  4.3%  3.3%  3.2%  2.9%  1.8%  0.9%  0.0%
[libx264 @ 0x25b17c0] ref B L0: 77.8%  9.2%  5.2%  2.7%  2.0%  1.9%  1.2%
[libx264 @ 0x25b17c0] ref B L1: 90.6%  9.4%
[libx264 @ 0x25b17c0] kb/s:283.82
